<?xml version="1.0" encoding="UTF-8"?>
<svg width="64" height="64" viewBox="0 0 64 64" fill="none" xmlns="http://www.w3.org/2000/svg" role="img" aria-label="Document icon">
  <defs>
    <linearGradient id="pageShadow" x1="0" y1="0" x2="0" y2="1">
      <stop offset="0%" stop-color="rgba(0,0,0,0.06)"/>
      <stop offset="100%" stop-color="rgba(0,0,0,0.02)"/>
    </linearGradient>
  </defs>
  <!-- Page -->
  <path d="M14 8h24l12 12v32a6 6 0 0 1-6 6H14a6 6 0 0 1-6-6V14a6 6 0 0 1 6-6z" fill="#FFFFFF"/>
  <!-- Folded corner -->
  <path d="M38 8v12a4 4 0 0 0 4 4h12" fill="#3B82F6"/>
  <!-- Page outline -->
  <path d="M14 8h24l12 12v32a6 6 0 0 1-6 6H14a6 6 0 0 1-6-6V14a6 6 0 0 1 6-6z" stroke="#0F172A" stroke-width="2" fill="none"/>
  <!-- Text lines -->
  <rect x="18" y="30" width="28" height="3" rx="1.5" fill="#0F172A"/>
  <rect x="18" y="38" width="22" height="3" rx="1.5" fill="#0F172A"/>
  <rect x="18" y="46" width="16" height="3" rx="1.5" fill="#0F172A"/>
  <!-- Subtle drop shadow at bottom -->
  <ellipse cx="32" cy="58" rx="18" ry="3" fill="url(#pageShadow)"/>
</svg>
